<?xml version="1.0" standalone="no"?>
<!DOCTYPE svg PUBLIC "-//W3C//DTD SVG 1.1//EN" "http://www.w3.org/Graphics/SVG/1.1/DTD/svg11.dtd" >
<svg xmlns="http://www.w3.org/2000/svg" xmlns:xlink="http://www.w3.org/1999/xlink" version="1.1">
<metadata></metadata>
<defs>
<font id="libbybold" horiz-adv-x="1480" >
<font-face units-per-em="2048" ascent="1638" descent="-410" />
<missing-glyph horiz-adv-x="1024" />
<glyph horiz-adv-x="0" />
<glyph horiz-adv-x="682" />
<glyph unicode=" "  horiz-adv-x="1024" />
<glyph unicode="&#x09;" horiz-adv-x="1024" />
<glyph unicode="&#xa0;" horiz-adv-x="1024" />
<glyph unicode="!" horiz-adv-x="704" d="M160 192q0 80 56 136t136 56t136 -56t56 -136t-56 -136t-136 -56t-136 56t-56 136zM192 576v1472h320v-1472h-320z" />
<glyph unicode="$" d="M120 392l248 160q40 -56 104 -132t128 -84v656l-152 112q-272 240 -272 460t124 332t300 136v184h320v-168q88 0 212 -84t156 -148l-208 -192q-64 80 -160 96v-544q80 -64 240 -232t160 -404t-144 -376t-256 -164v-168h-280v168q-168 32 -304 140q-160 140 -216 252z M496 1584q0 -104 104 -168v304q-104 -40 -104 -136zM920 336q96 104 88 228t-88 204v-432z" />
<glyph unicode="+" d="M120 776v320h460v456h316l4 -456h460v-320h-460v-464h-324l4 464h-460z" />
<glyph unicode="," horiz-adv-x="704" d="M160 192q0 80 56 136t136 56t136 -56t56 -168t-44 -212t-260 -188q96 120 112 240q-80 0 -136 56t-56 136z" />
<glyph unicode="-" d="M120 776v320h1240v-320h-1240z" />
<glyph unicode="." horiz-adv-x="704" d="M160 192q0 80 56 136t136 56t136 -56t56 -136t-56 -136t-136 -56t-136 56t-56 136z" />
<glyph unicode="/" d="M80 0l984 2048h336l-984 -2048h-336z" />
<glyph unicode="0" d="M160 580v888q0 236 172 408t408 172t408 -172t172 -408v-888q0 -236 -172 -408t-408 -172t-408 172t-172 408zM480 580q0 -108 76 -184t184 -76t184 76t76 184v888q0 108 -76 184t-184 76t-184 -76t-76 -184v-888z" />
<glyph unicode="1" d="M264 1472l576 576h64v-2048h-320v1344l-94 -98z" />
<glyph unicode="2" d="M200 0v64l760 1312q32 48 32 100q0 104 -74 178t-178 74t-178 -74l-226 226q168 168 408 168t404 -168t164 -404q0 -140 -64 -260l-496 -896h528v-320h-1080z" />
<glyph unicode="3" d="M128 612h320q0 -120 86 -206t206 -86t206 86t86 206t-86 206t-206 86v64l204 760h-744v320h1128l-272 -944q56 -24 116 -60q180 -180 180 -432t-180 -432t-432 -180t-432 180t-180 432z" />
<glyph unicode="4" d="M160 776l160 1272h320l-104 -952h424v952h320v-2048h-320v776h-800z" />
<glyph unicode="5" d="M128 612h320q0 -120 86 -206t206 -86t206 86t86 206t-86 206t-206 86h-540v64l152 1080h880v-320h-616l-80 -504h204q252 0 432 -180t180 -432t-180 -432t-432 -180t-432 180t-180 432z" />
<glyph unicode="6" d="M128 612q0 468 268 864t732 572l128 -288q-400 -144 -656 -552q72 16 140 16q252 0 432 -180t180 -432t-180 -432t-432 -180t-432 180t-180 432zM448 612q0 -120 86 -206t206 -86t206 86t86 206t-86 206t-206 86t-206 -86t-86 -206z" />
<glyph unicode="7" d="M120 0l800 1728h-800v320h1240v-64l-904 -1984h-336z" />
<glyph unicode="8" d="M128 612q0 252 180 432l28 28q-168 168 -168 404t168 404t408 168t404 -168t164 -404t-168 -404l28 -28q180 -180 180 -432t-180 -432t-432 -180t-432 180t-180 432zM448 612q0 -120 86 -206t206 -86t206 86t86 206t-86 206t-206 86t-206 -86t-86 -206zM488 1476 q0 -104 74 -178t178 -74t178 74t74 178t-74 178t-178 74t-178 -74t-74 -178z" />
<glyph unicode="9" d="M128 1436q0 252 180 432t432 180t432 -180t180 -432q0 -468 -268 -864t-732 -572l-128 288q400 144 656 552q-72 -16 -140 -16q-252 0 -432 180t-180 432zM448 1436q0 -120 86 -206t206 -86t206 86t86 206t-86 206t-206 86t-206 -86t-86 -206z" />
<glyph unicode="=" d="M120 456v320h1240v-320h-1240zM120 1096v320h1240v-320h-1240z" />
<glyph unicode="?" horiz-adv-x="1040" d="M112 1728l6 320h252q220 0 385 -160t165 -380t-168 -388q-48 -80 -48 -184l6 -360h-320l-6 408q0 120 108 256t108 268q0 100 -76 160t-156 60h-256zM358 192q0 80 56 136t136 56t136 -56t56 -136t-56 -136t-136 -56t-136 56t-56 136z" />
<glyph unicode="A" horiz-adv-x="2072" d="M100 0l904 2144h64l904 -2144h-336l-292 776h-608l-304 -776h-332zM856 1096h376l-196 448z" />
<glyph unicode="B" horiz-adv-x="1456" d="M200 0v2048h544q248 0 384 -160t136 -328t-52 -268t-156 -188q104 -32 204 -164t100 -376t-136 -404t-368 -160h-656zM520 320h296q120 0 172 80t52 200t-68 212t-204 92h-248v-584zM520 1224h216q112 0 160 84t48 176t-44 168t-156 76h-224v-504z" />
<glyph unicode="C" horiz-adv-x="1840" d="M120 1024q0 420 302 722t722 302q320 0 576 -176l-176 -240q-168 96 -400 96q-288 0 -496 -208t-208 -496t208 -496t496 -208q232 0 400 96l176 -240q-256 -176 -576 -176q-420 0 -722 302t-302 722z" />
<glyph unicode="D" horiz-adv-x="1880" d="M200 0v2048h592q408 0 688 -272t280 -704t-264 -752t-664 -320h-632zM520 320h296q208 0 416 200t208 512t-208 504t-432 192h-280v-1408z" />
<glyph unicode="E" horiz-adv-x="1456" d="M200 0v2048h1056v-320h-736v-632h688v-320h-688v-456h736v-320h-1056z" />
<glyph unicode="F" horiz-adv-x="1392" d="M200 0v2048h1056v-320h-736v-632h664v-320h-664v-776h-320z" />
<glyph unicode="G" horiz-adv-x="2288" d="M120 1024q0 420 302 722t722 302t722 -302l-226 -226q-208 208 -496 208t-496 -208t-208 -496t208 -496t496 -208t432 208q88 120 120 256h-464v320h808v-80q0 -424 -232 -724t-658 -300t-728 302t-302 722z" />
<glyph unicode="H" horiz-adv-x="1888" d="M200 0v2048h320v-952h848v952h320v-2048h-320v776h-848v-776h-320z" />
<glyph unicode="I" horiz-adv-x="720" d="M200 0v2048h320v-2048h-320z" />
<glyph unicode="J" horiz-adv-x="1456" d="M120 112l152 256q104 -48 244 -48q172 0 296 126t124 298v1304h320v-1304q0 -304 -220 -524t-520 -220q-228 0 -396 112z" />
<glyph unicode="K" horiz-adv-x="1688" d="M200 0v2048h320v-744l640 744h360l-672 -792l800 -1256h-352l-648 1000l-128 -136v-864h-320z" />
<glyph unicode="L" horiz-adv-x="1472" d="M200 0v2048h320v-1728h832v-320h-1152z" />
<glyph unicode="M" horiz-adv-x="2048" d="M200 0v2048h80l744 -1152l744 1152h80v-2048h-320v1048l-472 -664h-64l-472 672v-1056h-320z" />
<glyph unicode="N" horiz-adv-x="1888" d="M200 0v2048h80l1080 -1264v1264h328v-2048h-120l-1048 1264v-1264h-320z" />
<glyph unicode="O" horiz-adv-x="2288" d="M120 1024q0 420 302 722t722 302t722 -302t302 -722t-302 -722t-722 -302t-722 302t-302 722zM440 1024q0 -288 208 -496t496 -208t496 208t208 496t-208 496t-496 208t-496 -208t-208 -496z" />
<glyph unicode="P" horiz-adv-x="1496" d="M200 0v2048h576q248 0 424 -176t176 -448t-180 -456t-420 -192h-256v-776h-320zM520 1096h232q160 0 232 84t72 220t-68 232t-220 96h-248v-632z" />
<glyph unicode="Q" horiz-adv-x="2288" d="M120 1024q0 420 302 722t722 302t722 -302t302 -722q-8 -368 -216 -608l216 -136l-184 -280l-296 184q-216 -184 -544 -184q-420 0 -722 302t-302 722zM440 1024q0 -288 208 -496t496 -208q128 0 256 40l-184 120l184 280l288 -176q160 192 160 440q0 288 -208 496 t-496 208t-496 -208t-208 -496z" />
<glyph unicode="R" horiz-adv-x="1536" d="M200 0v2048h576q240 0 420 -172t180 -416t-124 -412t-292 -232l576 -816h-368l-544 776h-104v-776h-320zM520 1096h216q136 0 228 84t92 248t-84 232t-220 68h-232v-632z" />
<glyph unicode="S" d="M120 392l248 144q64 -88 152 -152t220 -64t210 52t78 192t-242 328t-386 320t-144 360t168 352t352 124t308 -64t204 -168l-248 -184q-88 64 -136 80t-116 16t-140 -44t-72 -136t184 -236t386 -330t202 -438t-174 -398t-426 -146t-412 140t-216 252z" />
<glyph unicode="T" horiz-adv-x="1624" d="M120 1728v320h1384v-320h-532v-1728h-320v1728h-532z" />
<glyph unicode="U" horiz-adv-x="1880" d="M200 744v1304h320v-1304q0 -172 124 -298t296 -126t296 126t124 298v1304h320v-1304q0 -304 -220 -524t-520 -220t-520 220t-220 524z" />
<glyph unicode="V" horiz-adv-x="1760" d="M120 2048h336l424 -1344l424 1344h336l-696 -2048h-128z" />
<glyph unicode="W" horiz-adv-x="2672" d="M120 2048h336l424 -1248l424 1248h64l424 -1248l424 1248h336l-696 -2048h-128l-392 1152l-392 -1152h-128z" />
<glyph unicode="X" horiz-adv-x="1880" d="M120 0l656 1024l-656 1024h344l476 -760l476 760h344l-656 -1024l656 -1024h-344l-476 760l-476 -760h-344z" />
<glyph unicode="Y" horiz-adv-x="1672" d="M104 2048h304l428 -752l428 752h304l-576 -984l4 -1064h-320l-4 1064z" />
<glyph unicode="Z" horiz-adv-x="1880" d="M200 0v64l944 1664h-944v320h1480v-64l-936 -1664h936v-320h-1480z" />
<glyph unicode="\" d="M80 2048h336l984 -2048h-336z" />
<glyph unicode="&#xad;" d="M120 776v320h1240v-320h-1240z" />
<glyph unicode="&#x2000;" horiz-adv-x="1108" />
<glyph unicode="&#x2001;" horiz-adv-x="2216" />
<glyph unicode="&#x2002;" horiz-adv-x="1108" />
<glyph unicode="&#x2003;" horiz-adv-x="2216" />
<glyph unicode="&#x2004;" horiz-adv-x="738" />
<glyph unicode="&#x2005;" horiz-adv-x="554" />
<glyph unicode="&#x2006;" horiz-adv-x="369" />
<glyph unicode="&#x2007;" horiz-adv-x="369" />
<glyph unicode="&#x2008;" horiz-adv-x="277" />
<glyph unicode="&#x2009;" horiz-adv-x="443" />
<glyph unicode="&#x200a;" horiz-adv-x="123" />
<glyph unicode="&#x2010;" d="M120 776v320h1240v-320h-1240z" />
<glyph unicode="&#x2011;" d="M120 776v320h1240v-320h-1240z" />
<glyph unicode="&#x2012;" d="M120 776v320h1240v-320h-1240z" />
<glyph unicode="&#x2013;" horiz-adv-x="1264" d="M120 776v320h1024v-320h-1024z" />
<glyph unicode="&#x2014;" horiz-adv-x="2288" d="M120 776v320h2048v-320h-2048z" />
<glyph unicode="&#x202f;" horiz-adv-x="443" />
<glyph unicode="&#x205f;" horiz-adv-x="554" />
<glyph unicode="&#x25fc;" horiz-adv-x="2050" d="M0 0v2050h2050v-2050h-2050z" />
</font>
</defs>
</svg>
